<svg width="38" height="38" viewBox="0 0 38 38" fill="none" xmlns="http://www.w3.org/2000/svg">
<rect width="38" height="38" rx="19" fill="#8600DA"/>
<path d="M18.375 27.5H11.625C11.0283 27.5 10.456 27.2629 10.034 26.841C9.61205 26.419 9.375 25.8467 9.375 25.25V15.125C9.375 14.5283 9.61205 13.956 10.034 13.534C10.456 13.1121 11.0283 12.875 11.625 12.875H12.75C13.3467 12.875 13.919 12.6379 14.341 12.216C14.7629 11.794 15 11.2217 15 10.625C15 10.3266 15.1185 10.0405 15.3295 9.82951C15.5405 9.61853 15.8266 9.5 16.125 9.5H22.875C23.1734 9.5 23.4595 9.61853 23.6705 9.82951C23.8815 10.0405 24 10.3266 24 10.625C24 11.2217 24.2371 11.794 24.659 12.216C25.081 12.6379 25.6533 12.875 26.25 12.875H27.375C27.9717 12.875 28.544 13.1121 28.966 13.534C29.3879 13.956 29.625 14.5283 29.625 15.125V19.625" stroke="white" stroke-width="2" stroke-linecap="round" stroke-linejoin="round"/>
<path d="M22.8165 20.2539C22.9491 19.5542 22.8569 18.8305 22.5532 18.1864C22.2495 17.5422 21.7498 17.0107 21.1257 16.6677C20.5015 16.3248 19.7849 16.1881 19.0784 16.2772C18.3718 16.3662 17.7116 16.6765 17.1921 17.1636C16.6726 17.6507 16.3204 18.2896 16.1861 18.989C16.0517 19.6883 16.1421 20.4123 16.4441 21.0572C16.7462 21.7021 17.2445 22.2349 17.8677 22.5794C18.491 22.924 19.2072 23.0625 19.914 22.9752M28.5 28.625L30.75 26.375L28.5 24.125M25.125 24.125L22.875 26.375L25.125 28.625" stroke="white" stroke-width="2" stroke-linecap="round" stroke-linejoin="round"/>
</svg>
